<svg width="200" height="200" viewBox="0 0 17 16" fill="none" xmlns="http://www.w3.org/2000/svg">
<path d="M8.68077 1.33326C7.66026 1.3326 6.65321 1.56623 5.73724 2.01615C4.82126 2.46608 4.0208 3.12028 3.39753 3.92836C2.77427 4.73644 2.34484 5.67682 2.14234 6.67704C1.93983 7.67726 1.96966 8.71062 2.22952 9.6975C2.48938 10.6844 2.97233 11.5984 3.64117 12.3692C4.31001 13.14 5.14687 13.7469 6.08728 14.1433C7.02768 14.5396 8.04653 14.7148 9.0653 14.6552C10.0841 14.5957 11.0756 14.3031 11.9634 13.7999L14.4701 14.6353C14.5382 14.6568 14.6093 14.6673 14.6808 14.6666C14.7864 14.6665 14.8904 14.6414 14.9844 14.5932C15.0783 14.545 15.1595 14.4753 15.2212 14.3896C15.2829 14.3039 15.3234 14.2048 15.3393 14.1005C15.3552 13.9961 15.3461 13.8894 15.3128 13.7893L14.4808 11.2826C15.057 10.2689 15.357 9.12169 15.3506 7.95569C15.3443 6.78968 15.0319 5.64579 14.4446 4.63844C13.8574 3.63109 13.0159 2.79561 12.0044 2.21557C10.9929 1.63554 9.84679 1.33129 8.68077 1.33326V1.33326ZM13.1161 11.4139L13.6268 12.9473L12.0934 12.4366C11.9999 12.4047 11.9004 12.3941 11.8022 12.4057C11.7041 12.4172 11.6097 12.4505 11.5261 12.5033C10.4142 13.2069 9.08187 13.4759 7.78407 13.2586C6.48627 13.0414 5.31416 12.3532 4.49207 11.3257C3.66998 10.2983 3.25565 9.00373 3.32836 7.68988C3.40108 6.37603 3.95574 5.13514 4.8862 4.20468C5.81665 3.27423 7.05754 2.71957 8.37139 2.64685C9.68524 2.57413 10.9798 2.98847 12.0072 3.81056C13.0347 4.63265 13.7229 5.80476 13.9401 7.10256C14.1574 8.40036 13.8885 9.7327 13.1848 10.8446C13.1317 10.9284 13.098 11.023 13.0861 11.1215C13.0742 11.22 13.0845 11.3199 13.1161 11.4139V11.4139ZM12.0141 6.33326C12.0141 6.51007 11.9439 6.67964 11.8188 6.80467C11.6938 6.92969 11.5243 6.99993 11.3474 6.99993H6.01411C5.8373 6.99993 5.66773 6.92969 5.5427 6.80467C5.41768 6.67964 5.34744 6.51007 5.34744 6.33326C5.34744 6.15645 5.41768 5.98688 5.5427 5.86186C5.66773 5.73683 5.8373 5.66659 6.01411 5.66659H11.3474C11.5243 5.66659 11.6938 5.73683 11.8188 5.86186C11.9439 5.98688 12.0141 6.15645 12.0141 6.33326ZM9.34744 9.6666C9.34744 9.84341 9.2772 10.013 9.15218 10.138C9.02715 10.263 8.85759 10.3333 8.68077 10.3333H6.01411C5.8373 10.3333 5.66773 10.263 5.5427 10.138C5.41768 10.013 5.34744 9.84341 5.34744 9.6666C5.34744 9.48978 5.41768 9.32021 5.5427 9.19519C5.66773 9.07017 5.8373 8.99993 6.01411 8.99993H8.68077C8.85759 8.99993 9.02715 9.07017 9.15218 9.19519C9.2772 9.32021 9.34744 9.48978 9.34744 9.6666Z" fill="white"/>
</svg>
